<?xml version="1.0" standalone="no"?>
<!DOCTYPE svg PUBLIC "-//W3C//DTD SVG 20010904//EN"
 "http://www.w3.org/TR/2001/REC-SVG-20010904/DTD/svg10.dtd">
<svg version="1.0" xmlns="http://www.w3.org/2000/svg"
 width="16.000000pt" height="16.000000pt" viewBox="0 0 16.000000 16.000000"
 preserveAspectRatio="xMidYMid meet">
<metadata>
Created by potrace 1.11, written by Peter Selinger 2001-2013
</metadata>
<g transform="translate(0.000000,16.000000) scale(0.016000,-0.016000)"
fill="#000000" stroke="none">
<path d="M0 500 l0 -500 500 0 500 0 0 500 0 500 -500 0 -500 0 0 -500z m490
344 c0 -40 -2 -44 -25 -45 -14 -1 -30 -2 -37 -3 -7 -1 -18 18 -24 41 -14 47
-17 44 51 56 31 5 35 -1 35 -49z m165 22 c19 -8 35 -18 35 -21 0 -3 -9 -24
-20 -45 l-20 -40 -34 17 c-33 15 -33 17 -24 52 16 58 14 57 63 37z m-337 -74
l21 -39 -28 -21 -28 -21 -34 35 -34 35 30 24 c40 33 48 31 73 -13z m522 -88
c0 -5 -68 -44 -78 -44 -5 0 -17 12 -27 26 -17 26 -16 27 16 60 l32 33 28 -36
c16 -20 29 -37 29 -39z m-222 10 c169 -83 167 -346 -3 -429 -78 -39 -152 -39
-230 -1 -63 31 -97 75 -121 153 -39 128 44 270 179 304 49 12 116 2 175 -27z
m-425 -50 c18 -9 34 -18 35 -20 2 -1 -2 -18 -8 -37 l-13 -34 -43 10 c-47 11
-50 17 -33 66 13 36 18 37 62 15z m700 -121 l5 -43 -49 0 c-45 0 -49 2 -49 24
0 13 -2 31 -5 39 -4 10 6 17 37 24 24 5 46 7 49 4 4 -3 9 -25 12 -48z m-690
-85 c2 -19 0 -36 -7 -40 -13 -9 -76 -22 -80 -17 -2 2 -6 23 -9 47 l-5 42 48 0
c46 0 48 -1 53 -32z m650 -54 c15 -3 27 -10 27 -15 0 -15 -28 -79 -35 -79 -3
0 -23 10 -44 22 l-39 22 16 33 c10 22 21 32 31 29 9 -3 28 -8 44 -12z m-586
-93 l22 -28 -34 -33 -34 -33 -25 29 c-14 16 -26 34 -26 41 0 10 57 53 70 52 3
0 15 -13 27 -28z m480 -62 l32 -32 -36 -29 c-39 -31 -39 -31 -69 26 -15 28
-15 30 7 47 13 10 26 19 29 19 2 0 19 -14 37 -31z m-352 -31 c29 -13 28 -11
14 -60 -11 -43 -15 -44 -65 -23 l-35 14 21 41 c22 44 27 46 65 28z m193 -47
c17 -56 16 -59 -33 -63 l-45 -3 0 47 c0 43 2 47 28 51 15 2 30 5 33 6 3 0 11
-16 17 -38z"/>
<path d="M340 505 c0 -25 5 -45 10 -45 6 0 10 7 10 15 0 8 9 15 19 15 10 0 21
7 25 15 10 26 -5 45 -35 45 -28 0 -29 -2 -29 -45z m45 15 c0 -7 -6 -15 -12
-17 -8 -3 -13 4 -13 17 0 13 5 20 13 18 6 -3 12 -11 12 -18z"/>
<path d="M490 505 c0 -25 5 -45 10 -45 6 0 10 5 10 11 0 8 4 8 13 0 11 -8 13
-4 13 24 -1 24 -5 34 -13 30 -7 -2 -13 2 -13 10 0 8 -4 15 -10 15 -5 0 -10
-20 -10 -45z"/>
<path d="M421 512 c-12 -23 4 -52 28 -52 22 0 34 25 26 51 -8 24 -41 25 -54 1z
m39 -17 c0 -26 -14 -33 -25 -15 -9 14 1 40 15 40 5 0 10 -11 10 -25z"/>
<path d="M560 516 c-24 -30 18 -74 43 -46 10 10 8 12 -5 7 -10 -3 -20 -2 -23
3 -4 6 3 10 15 10 15 0 20 5 18 17 -4 23 -31 28 -48 9z m30 -6 c0 -5 -5 -10
-11 -10 -5 0 -7 5 -4 10 3 6 8 10 11 10 2 0 4 -4 4 -10z"/>
<path d="M630 495 c0 -19 5 -35 10 -35 6 0 10 13 10 29 0 16 6 32 13 34 6 3 2
6 -10 6 -20 1 -23 -4 -23 -34z"/>
</g>
</svg>
